<svg width="1200" height="900" viewBox="0 0 1200 900" fill="none" xmlns="http://www.w3.org/2000/svg">
<defs><linearGradient id="g" x1="0" y1="0" x2="1200" y2="900"><stop stop-color="#E0E7FF"/><stop offset="1" stop-color="#DBEAFE"/></linearGradient></defs>
<rect width="1200" height="900" rx="44" fill="url(#g)"/>
<circle cx="980" cy="150" r="150" fill="white" fill-opacity=".3"/>
<circle cx="180" cy="760" r="190" fill="white" fill-opacity=".22"/>
<rect x="130" y="110" width="940" height="650" rx="34" fill="white"/>
<rect x="130" y="110" width="940" height="62" rx="34" fill="#F8FAFC"/>
<circle cx="182" cy="141" r="9" fill="#CBD5E1"/>
<circle cx="214" cy="141" r="9" fill="#CBD5E1"/>
<circle cx="246" cy="141" r="9" fill="#CBD5E1"/>
<rect x="290" y="132" width="210" height="18" rx="9" fill="#DCE3EE"/>
<rect x="190" y="235" width="380" height="32" rx="16" fill="#111827"/>
<rect x="190" y="298" width="520" height="18" rx="9" fill="#CBD5E1"/>
<rect x="190" y="338" width="420" height="18" rx="9" fill="#E2E8F0"/>
<rect x="190" y="420" width="170" height="58" rx="18" fill="#4F46E5"/>
<rect x="760" y="230" width="220" height="220" rx="26" fill="#EEF2FF"/>
<rect x="190" y="560" width="790" height="100" rx="20" fill="#F8FAFC"/>
<text x="600" y="835" text-anchor="middle" fill="#111827" font-family="Arial" font-size="44" font-weight="700">Business Dashboard</text>
</svg>