<svg width="1200" height="900" viewBox="0 0 1200 900" fill="none" xmlns="http://www.w3.org/2000/svg">
<defs>
  <linearGradient id="g" x1="0" y1="0" x2="1200" y2="900">
    <stop stop-color="#E0E7FF"/>
    <stop offset="1" stop-color="#F3E8FF"/>
  </linearGradient>
</defs>
<rect width="1200" height="900" rx="44" fill="url(#g)"/>
<circle cx="980" cy="150" r="150" fill="white" fill-opacity=".3"/>
<circle cx="180" cy="760" r="190" fill="white" fill-opacity=".22"/>
<rect x="130" y="110" width="940" height="650" rx="34" fill="#111827"/>
<rect x="165" y="150" width="870" height="390" rx="24" fill="url(#g)"/>
<circle cx="600" cy="345" r="72" fill="white" fill-opacity=".92"/>
<path d="M580 305L650 345L580 385V305Z" fill="#4F46E5"/>
<rect x="165" y="575" width="870" height="95" rx="18" fill="#0F172A"/>
<rect x="195" y="610" width="120" height="18" rx="9" fill="#7C3AED"/>
<rect x="335" y="610" width="160" height="18" rx="9" fill="#2563EB"/>
<rect x="515" y="610" width="100" height="18" rx="9" fill="#EC4899"/>
<rect x="635" y="610" width="190" height="18" rx="9" fill="#0EA5E9"/>
<rect x="845" y="610" width="150" height="18" rx="9" fill="#F59E0B"/>
<text x="600" y="835" text-anchor="middle" fill="#111827" font-family="Arial" font-size="44" font-weight="700">Video Editing</text>
</svg>