<svg width="1400" height="950" viewBox="0 0 1400 950" fill="none" xmlns="http://www.w3.org/2000/svg">
<defs>
  <linearGradient id="bg" x1="0" y1="0" x2="1400" y2="950">
    <stop stop-color="#FEF3C7"/><stop offset="1" stop-color="#FDE68A"/>
  </linearGradient>
  <filter id="shadow"><feDropShadow dx="0" dy="28" stdDeviation="32" flood-opacity=".18"/></filter>
</defs>
<rect width="1400" height="950" rx="48" fill="url(#bg)"/>
<circle cx="1160" cy="140" r="190" fill="white" fill-opacity=".26"/>
<circle cx="180" cy="800" r="220" fill="white" fill-opacity=".2"/>
<g filter="url(#shadow)">
  <rect x="145" y="105" width="1110" height="700" rx="40" fill="white"/>
  <rect x="145" y="105" width="1110" height="72" rx="40" fill="#F8FAFC"/>
  <circle cx="200" cy="141" r="10" fill="#CBD5E1"/>
  <circle cx="234" cy="141" r="10" fill="#CBD5E1"/>
  <circle cx="268" cy="141" r="10" fill="#CBD5E1"/>
  <rect x="315" y="130" width="250" height="20" rx="10" fill="#DCE3EE"/>
  <rect x="205" y="240" width="440" height="38" rx="19" fill="#111827"/>
  <rect x="205" y="312" width="585" height="20" rx="10" fill="#CBD5E1"/>
  <rect x="205" y="354" width="470" height="20" rx="10" fill="#E2E8F0"/>
  <rect x="205" y="440" width="190" height="62" rx="18" fill="#4F46E5"/>
  <rect x="830" y="225" width="300" height="300" rx="32" fill="#EEF2FF"/>
  <rect x="205" y="600" width="925" height="105" rx="22" fill="#F8FAFC"/>
  <rect x="245" y="640" width="215" height="17" rx="8" fill="#7C3AED"/>
  <rect x="495" y="640" width="215" height="17" rx="8" fill="#D6DCE7"/>
  <rect x="745" y="640" width="215" height="17" rx="8" fill="#D6DCE7"/>
</g>
<text x="700" y="870" text-anchor="middle" fill="#111827" font-family="Arial" font-size="50" font-weight="700">Prime Habitat</text>
<text x="700" y="915" text-anchor="middle" fill="#475569" font-family="Arial" font-size="24">Real Estate Lead Generation</text>
</svg>