<svg width="1400" height="950" viewBox="0 0 1400 950" xmlns="http://www.w3.org/2000/svg">
<defs><linearGradient id="g" x1="0" y1="0" x2="1400" y2="950"><stop stop-color="#DBEAFE"/><stop offset="1" stop-color="#E0E7FF"/></linearGradient></defs>
<rect width="1400" height="950" rx="52" fill="url(#g)"/>
<circle cx="1160" cy="150" r="170" fill="white" fill-opacity=".28"/>
<circle cx="190" cy="800" r="210" fill="white" fill-opacity=".18"/>
<rect x="130" y="100" width="1140" height="700" rx="40" fill="white"/>
<rect x="130" y="100" width="1140" height="72" rx="40" fill="#F8FAFC"/>
<circle cx="190" cy="136" r="10" fill="#CBD5E1"/><circle cx="224" cy="136" r="10" fill="#CBD5E1"/><circle cx="258" cy="136" r="10" fill="#CBD5E1"/>
<rect x="310" y="125" width="260" height="20" rx="10" fill="#DCE3EE"/>
<rect x="190" y="235" width="250" height="420" rx="28" fill="#111827"/>
<rect x="480" y="235" width="220" height="110" rx="22" fill="#EEF2FF"/>
<rect x="725" y="235" width="220" height="110" rx="22" fill="#EEF2FF"/>
<rect x="970" y="235" width="220" height="110" rx="22" fill="#EEF2FF"/>
<rect x="480" y="390" width="470" height="265" rx="24" fill="#F8FAFC"/>
<rect x="980" y="390" width="210" height="265" rx="24" fill="#EEF2FF"/>
<rect x="520" y="570" width="55" height="55" rx="10" fill="#7C3AED"/>
<rect x="600" y="520" width="55" height="105" rx="10" fill="#2563EB"/>
<rect x="680" y="545" width="55" height="80" rx="10" fill="#7C3AED"/>
<rect x="760" y="470" width="55" height="155" rx="10" fill="#2563EB"/>
<rect x="840" y="430" width="55" height="195" rx="10" fill="#7C3AED"/>
<text x="700" y="865" text-anchor="middle" fill="#111827" font-family="Arial" font-size="54" font-weight="700">Finance OS</text>
<text x="700" y="915" text-anchor="middle" fill="#475569" font-family="Arial" font-size="24">Hero Screenshot</text>
</svg>